<?xml version="1.0" encoding="utf-8"?>
<!-- Generator: Adobe Illustrator 24.0.2, SVG Export Plug-In . SVG Version: 6.00 Build 0)  -->
<svg version="1.1" id="Layer_1" xmlns="http://www.w3.org/2000/svg" xmlns:xlink="http://www.w3.org/1999/xlink" x="0px" y="0px"
	 viewBox="0 0 250 250" style="enable-background:new 0 0 250 250;" xml:space="preserve">
<style type="text/css">
	.st0{fill:#1F497D;}
</style>
<g>
	<defs>
		<circle id="SVGID_1_" cx="125" cy="125" r="119"/>
	</defs>
	<clipPath id="SVGID_2_">
		<use xlink:href="#SVGID_1_"  style="overflow:visible;"/>
	</clipPath>
	<use xlink:href="#SVGID_1_"  style="overflow:visible;fill:none;stroke:#17B1D4;stroke-width:5;stroke-miterlimit:10;"/>
</g>
<path class="st0" d="M161,143.3v-0.2c-0.2-1.4-1.5-2.3-2.9-2c-1.2,0.2-2.1,1.3-2.1,2.5v0.2c0.1,0.9,0.1,1.9,0.2,2.8l-9.3-0.3
	c-0.5-6.3-2.3-12.4-5.3-17.9l8.1-5.3c0.3,0.6,0.6,1.2,0.9,1.8c0.6,1.3,2,1.8,3.3,1.3c1.3-0.6,1.8-2,1.3-3.3c0-0.1-0.1-0.1-0.1-0.2
	c-1.4-2.8-3-5.4-4.8-8c-0.7-1.2-2.3-1.5-3.4-0.7c-1.2,0.7-1.5,2.3-0.7,3.4c0,0.1,0.1,0.1,0.1,0.2c0.6,0.8,1.1,1.6,1.7,2.5l-8.6,4.6
	c-3.5-5.1-8.1-9.5-13.4-12.8l4.5-9c0.6,0.4,1.2,0.8,1.8,1.2c1.1,0.8,2.7,0.4,3.5-0.7c0.8-1.1,0.4-2.7-0.7-3.5l0,0
	c-2.6-1.7-5.3-3.2-8.1-4.5c-1.3-0.4-2.7,0.3-3.1,1.6c-0.3,1.1,0.1,2.3,1.1,2.9c0.9,0.4,1.8,0.8,2.6,1.3l-5.3,8.6
	c-5.6-2.7-11.7-4.2-17.9-4.4l-0.6-10.2c0.8,0,1.6,0,2.4,0c1.4,0.1,2.5-0.9,2.6-2.3c0,0,0,0,0-0.1c0.1-1.4-1-2.5-2.3-2.6
	c-3-0.2-6.1-0.1-9.1,0.2H97c-1.4,0.2-2.3,1.4-2.2,2.8c0.1,1.2,1.2,2.2,2.4,2.2h0.4c0.8,0,1.7-0.1,2.5-0.2l-0.3,10.3
	c-6.2,0.4-12.2,2.1-17.7,5l-5.6-8.3c0.7-0.4,1.5-0.8,2.3-1.2c1.2-0.7,1.6-2.2,1-3.4c-0.6-1.1-2-1.6-3.2-1.1c-2.8,1.4-5.4,3-8,4.8
	c-1.2,0.7-1.5,2.3-0.7,3.4s2.3,1.5,3.4,0.7c0.1,0,0.1-0.1,0.2-0.1c0.7-0.5,1.3-0.9,2-1.4l4.8,8.8c-5.2,3.4-9.6,7.9-13,13.2l-8.7-4.4
	c0.5-0.8,0.9-1.6,1.4-2.3c0.8-1.1,0.4-2.7-0.7-3.5s-2.7-0.4-3.5,0.7c-1.7,2.6-3.2,5.3-4.5,8.1c-0.6,1.2-0.2,2.7,1,3.4
	c1.2,0.6,2.7,0.2,3.4-1c0-0.1,0.1-0.2,0.1-0.3c0.3-0.7,0.7-1.4,1-2.1l8.2,5.1c-2.9,5.6-4.5,11.8-4.8,18l-9.3,0.6c0-0.9,0-1.8,0-2.8
	c0-1.4-1.1-2.5-2.5-2.5c-1.3,0-2.3,0.9-2.5,2.2c0,1.2-0.1,2.4-0.1,3.5c0,1.8,0.1,3.7,0.3,5.5v0.2c0.1,1.3,1.2,2.2,2.5,2.2h0.3
	c1.4-0.2,2.4-1.4,2.2-2.8c0-0.7-0.1-1.4-0.2-2.1l9.2,0.3c0.3,6.4,2,12.6,4.9,18.2l-7.4,4.8c-0.4-0.8-0.9-1.6-1.3-2.4
	c-0.7-1.2-2.2-1.6-3.4-0.9c-1.1,0.6-1.5,1.9-1,3.1c1.4,2.8,3,5.4,4.8,8c0.7,1.2,2.3,1.5,3.4,0.7s1.5-2.3,0.7-3.4
	c0-0.1-0.1-0.1-0.1-0.2c-0.4-0.6-0.8-1.2-1.2-1.9l7.7-4.2c3.5,5.4,8.1,9.9,13.5,13.4l-3.8,7.5c-0.7-0.4-1.5-0.9-2.2-1.4
	c-1.3-0.6-2.7,0-3.3,1.3c-0.4,0.9-0.2,2.1,0.5,2.8c2.6,1.7,5.3,3.2,8.1,4.5c1.3,0.5,2.7-0.1,3.2-1.4c0.5-1.2,0-2.5-1.2-3.1
	c-0.7-0.3-1.4-0.7-2.1-1l4.4-7.1c5.8,2.9,12.1,4.5,18.5,4.7l0.5,8.3c-0.8,0-1.6,0-2.4-0.1c-1.4-0.1-2.5,0.9-2.6,2.2c0,0,0,0,0,0
	c-0.1,1.4,1,2.5,2.3,2.6c1.2,0,2.2,0.1,3.4,0.1c1.8,0,3.3-0.2,5.3-0.3c1.4,0.1,2.7-1,2.8-2.4c0-0.3,0-0.5-0.1-0.8
	c-0.1-1.2-1.1-2.1-2.4-2c-0.1,0-0.2,0-0.3,0c0,0-1.8,0.3-2.6,0.4l0.3-8.2c6.4-0.4,12.7-2.2,18.4-5.3l4.6,7.1c-0.7,0.4-1.3,0.7-2,1.1
	c-1.2,0.6-1.7,2.1-1.1,3.3c0.6,1.2,2.1,1.7,3.3,1.1c2.8-1.4,5.4-3,8-4.8c1.1-0.9,1.3-2.4,0.4-3.5c-0.8-1-2.2-1.2-3.3-0.5
	c-0.7,0.5-1.5,1-2.2,1.5l-4-7.4c5.3-3.6,9.8-8.3,13.2-13.7l7.8,3.9c-0.4,0.6-0.8,1.2-1.2,1.8c-0.8,1.1-0.7,2.7,0.4,3.5
	c1.1,0.8,2.7,0.7,3.5-0.4c0.1-0.1,0.1-0.2,0.2-0.3c1.7-2.6,3.2-5.3,4.5-8.1c0.6-1.3,0-2.8-1.3-3.3c-1.3-0.6-2.8,0-3.3,1.3l0,0
	c-0.4,0.8-0.8,1.8-1.3,2.5l-7.5-4.6c2.8-5.7,4.2-12,4.3-18.3l9.2-0.5c0,0.7,0,1.4,0,2.2c-0.1,1.4,0.9,2.6,2.3,2.7c0,0,0,0,0,0h0.2
	c1.3,0,2.4-1,2.5-2.3c0-1.2,0.1-2.5,0.1-3.7C161.3,147.1,161.2,145.2,161,143.3z"/>
<path class="st0" d="M205.5,73.9L205.5,73.9c0-0.8-0.6-1.5-1.5-1.5c-0.8,0-1.5,0.6-1.5,1.5c0,0.1,0,0.2,0,0.4v0.1
	c0,0.6,0.1,1.1,0.1,1.8l-5.6-0.2c-0.3-3.8-1.4-7.5-3.2-10.8l4.9-3.2l0.6,1.1c0.4,0.7,1.3,1,2,0.6c0.7-0.4,1-1.3,0.6-2l0,0
	c-0.9-1.7-1.8-3.2-2.9-4.7c-0.5-0.6-1.5-0.7-2.1-0.2c-0.6,0.5-0.7,1.3-0.3,2c0.4,0.5,0.7,1,1,1.5l-5.1,2.8c-2.1-3.1-4.9-5.7-8.1-7.7
	l2.7-5.4l1.1,0.7c0.7,0.4,1.6,0.1,2-0.7c0.3-0.6,0.2-1.4-0.4-1.8c-1.6-1-3.2-1.9-4.9-2.7c-0.8-0.3-1.6,0.2-1.9,0.9
	c-0.2,0.7,0,1.4,0.7,1.8c0.5,0.2,1,0.5,1.5,0.8l-3.2,5.2c-3.4-1.6-7-2.5-10.7-2.7l-0.4-6.1h1.4c0.8,0.1,1.5-0.6,1.6-1.4c0,0,0,0,0,0
	c0.1-0.8-0.6-1.5-1.4-1.6c0,0,0,0,0,0c-1.8-0.1-3.7-0.1-5.5,0.1h-0.1c-0.8,0-1.5,0.8-1.4,1.6c0,0.8,0.8,1.5,1.6,1.4h0.2l1.5-0.1
	l-0.2,6.1c-3.7,0.2-7.3,1.3-10.6,3l-3.5-5.1l1.4-0.7c0.8-0.2,1.3-1,1.1-1.8s-1-1.3-1.8-1.1c-0.2,0-0.4,0.1-0.5,0.2
	c-1.7,0.8-3.3,1.8-4.8,2.9c-0.7,0.5-0.8,1.4-0.3,2.1c0.5,0.7,1.4,0.8,2.1,0.3l1.2-0.8l2.9,5.3c-3.1,2.1-5.8,4.8-7.8,7.9l-5.3-2.6
	c0.3-0.5,0.6-0.9,0.9-1.4c0.5-0.7,0.4-1.6-0.2-2.1c-0.7-0.5-1.6-0.4-2.1,0.2c0,0.1-0.1,0.1-0.1,0.2c-1,1.6-1.9,3.2-2.7,4.9
	c-0.4,0.7-0.2,1.6,0.5,2.1c0.7,0.4,1.6,0.2,2.1-0.5c0-0.1,0.1-0.2,0.1-0.3c0.2-0.4,0.4-0.8,0.6-1.3l4.9,3.1
	c-1.7,3.4-2.7,7.1-2.9,10.9l-5.6,0.3c0-0.5,0-1.1,0-1.7c0-0.8-0.7-1.5-1.5-1.5c-0.7,0-1.3,0.6-1.4,1.3c0,0.7,0,1.4,0,2.2
	c0,1.1,0,2.2,0.2,3.3v0.1c0.1,0.8,0.7,1.3,1.5,1.3h0.2c0.8-0.1,1.4-0.8,1.3-1.7c0-0.4,0-0.8-0.1-1.3l5.5,0.1c0.2,3.8,1.2,7.5,3,10.9
	l-4.4,2.9c-0.3-0.5-0.5-1-0.8-1.4c-0.3-0.8-1.2-1.1-2-0.8c-0.8,0.3-1.1,1.2-0.8,2c0,0.1,0.1,0.1,0.1,0.2c0.8,1.7,1.8,3.3,2.9,4.8
	c0.5,0.7,1.4,0.8,2.1,0.3c0.7-0.5,0.8-1.4,0.3-2.1c-0.3-0.4-0.5-0.7-0.8-1.1l4.6-2.5c2.1,3.2,4.9,6,8.1,8.1l-2.3,4.5l-1.3-0.8
	c-0.7-0.4-1.6-0.1-2,0.6c-0.4,0.6-0.2,1.5,0.4,1.9c1.6,1,3.2,1.9,4.9,2.6c0.7,0.4,1.6,0.2,2.1-0.5c0.4-0.7,0.2-1.6-0.5-2.1
	c-0.1,0-0.2-0.1-0.3-0.1l-1.3-0.6l2.7-4.3c3.5,1.7,7.3,2.7,11.1,2.8l0.3,5h-1.5c-0.8-0.1-1.5,0.6-1.6,1.4c0,0,0,0,0,0
	c-0.1,0.8,0.6,1.5,1.4,1.6c0.7,0,1.3,0,2.1,0c1.1,0,2-0.1,3.2-0.2c0.9,0.1,1.6-0.6,1.7-1.5c0-0.1,0-0.3,0-0.4
	c-0.1-0.7-0.7-1.3-1.4-1.2c-0.1,0-0.1,0-0.2,0c0,0-1.1,0.2-1.6,0.2l0.1-5c3.8-0.2,7.6-1.3,11-3.1l2.8,4.2l-1.2,0.6
	c-0.8,0.3-1.1,1.2-0.8,2c0.3,0.8,1.2,1.1,2,0.8c0.1,0,0.1-0.1,0.2-0.1c1.7-0.8,3.3-1.8,4.8-2.9c0.7-0.5,0.8-1.4,0.3-2.1
	c-0.5-0.7-1.4-0.8-2.1-0.3l0,0c-0.4,0.3-0.9,0.6-1.3,0.9l-2.4-4.5c3.2-2.2,5.9-5,7.9-8.3l4.7,2.4l-0.6,1.1c-0.5,0.7-0.4,1.6,0.2,2.1
	c0.7,0.5,1.6,0.4,2.1-0.2c0-0.1,0.1-0.1,0.1-0.2c1.1-1.5,2-3.2,2.8-4.8c0.3-0.8-0.1-1.6-0.9-1.9c-0.7-0.3-1.5,0-1.8,0.7
	c-0.2,0.5-0.5,1-0.7,1.5l-4.5-2.8c1.7-3.4,2.5-7.2,2.6-11l5.5-0.3c0,0.4,0,0.9,0,1.3c-0.1,0.8,0.6,1.5,1.4,1.6h0.1
	c0.8,0,1.4-0.6,1.5-1.4c0-0.7,0-1.5,0-2.2C205.7,76.2,205.6,75.1,205.5,73.9z"/>
</svg>
